<svg width="1697" height="1697" viewBox="0 0 1697 1697" fill="none" xmlns="http://www.w3.org/2000/svg" xmlns:xlink="http://www.w3.org/1999/xlink">
<path d="M1153.66 319.412L1459.01 848.301L1153.65 1377.19L542.947 1377.19L237.593 848.302L542.947 319.412L1153.66 319.412Z" fill="#4F0C71"/>
<path d="M1153.66 319.412L1459.01 848.301L1153.65 1377.19L542.947 1377.19L237.593 848.302L542.947 319.412L1153.66 319.412Z" fill="url(#pattern0_407_420)"/>
<path d="M1153.66 319.412L1459.01 848.301L1153.65 1377.19L542.947 1377.19L237.593 848.302L542.947 319.412L1153.66 319.412Z" fill="url(#paint0_radial_407_420)"/>
<path d="M1153.66 319.412L1459.01 848.301L1153.65 1377.19L542.947 1377.19L237.593 848.302L542.947 319.412L1153.66 319.412Z" fill="#231333" fill-opacity="0.7"/>
<path d="M1153.66 319.412L1459.01 848.301L1153.65 1377.19L542.947 1377.19L237.593 848.302L542.947 319.412L1153.66 319.412Z" stroke="url(#paint1_linear_407_420)" stroke-width="17.825"/>
<path d="M1233.11 1226.77H1233.18L1211.77 1263.86L1209.79 1260.43H1209.79L1211.78 1263.88H1211.68L1149.29 1371.95L1148.85 1371.19V1371.95H547.4V1371.85L547.343 1371.95L484.947 1263.88H547.4V1263.85H1126.42L1128.39 1260.43H1128.32L1149.74 1223.35L1151.71 1226.77H1151.72L1149.72 1223.32H1235.1L1233.11 1226.77ZM1169.09 1263.64L1169.09 1263.64L1167.24 1260.43H1167.24L1169.09 1263.64ZM1192.41 1223.56L1194.26 1226.77H1194.26L1192.41 1223.56L1192.41 1223.56ZM1268.32 1165.82H1268.33L1268.16 1166.13L1268.16 1166.13H1268.16L1246.92 1202.91L1225.69 1166.13H1225.69L1246.93 1202.93H1161.56L1182.8 1166.13H1182.79L1182.96 1165.83L1182.96 1165.82H1182.97L1204.2 1129.05L1225.43 1165.82H1225.44L1204.19 1129.02H1289.56L1268.32 1165.82ZM1204.25 1202.7L1204.25 1202.69L1183.14 1166.13H1183.14L1204.25 1202.7ZM1246.88 1129.26L1267.98 1165.82H1267.99L1246.88 1129.26L1246.88 1129.26ZM1322.74 1071.51H1322.75L1322.58 1071.82L1322.58 1071.82H1322.57L1301.34 1108.6L1280.11 1071.82H1280.1L1301.35 1108.62H1215.98L1237.22 1071.82H1237.21L1237.38 1071.52L1237.38 1071.51H1237.38L1258.62 1034.74L1279.85 1071.51H1279.85L1258.61 1034.71H1343.98L1322.74 1071.51ZM1258.66 1108.38L1258.66 1108.38L1237.56 1071.82H1237.55L1258.66 1108.38ZM620.284 378.505H707.686L683.519 420.36L683.542 420.4H683.449L660.232 460.61L660.256 460.65H572.843L572.201 461.762L572.224 461.801H572.157L548.279 503.16L548.303 503.199H548.24L524.36 544.561L524.383 544.6H524.317L500.438 585.96L500.462 586H500.4L476.52 627.362L476.542 627.4H476.479L452.599 668.761L452.622 668.8H452.56L428.696 710.132H428.746L405.757 749.95L422.9 779.643H422.901L422.873 779.69L527.083 960.188L527.08 960.188L529.146 963.767H529.148L529.146 963.769L529.148 963.771H529.146L523.796 973.038L523.795 973.036L488.046 1034.95L488.073 1035H488.106L488.089 1035.03L488.106 1035.06H488.073L446.775 1106.59L405.478 1035.06H405.444L405.461 1035.03L405.444 1035H405.478L405.483 1034.99L364.357 963.757H364.332L364.344 963.734L364.158 963.412H364.212L340.442 922.242H340.354L340.394 922.173L299.269 850.942H299.069L299.168 850.77L299.069 850.598H299.269L340.4 779.354L340.402 779.357L381.569 708.055L381.585 708.082L404.528 668.343L404.507 668.305H404.569L428.449 626.943L428.427 626.904H428.489L452.37 585.543L452.348 585.504H452.408L476.288 544.143L476.266 544.104H476.329L500.209 502.742L500.188 502.704H500.249L524.129 461.343L524.106 461.304H524.171L548.05 419.942L548.028 419.904H548.089L571.969 378.543L571.946 378.504H620.285L620.284 378.505ZM1301.29 1034.95L1322.4 1071.51H1322.4L1301.29 1034.95L1301.29 1034.95ZM381.794 850.843L405.621 892.112H405.709L405.669 892.181L446.795 963.412H446.82L446.807 963.434L446.994 963.757H446.94L482.071 1024.6L517.243 963.685L416.943 789.961L381.794 850.843ZM1355.26 941.563H1397.81L1376.57 978.362H1376.58L1376.41 978.667L1376.41 978.674H1376.41L1355.17 1015.45L1333.94 978.674H1333.94L1355.18 1015.47H1269.81L1291.05 978.674H1291.04L1291.21 978.368L1291.21 978.362H1291.22L1312.45 941.586L1333.68 978.362H1333.68L1312.44 941.562H1355.26L1355.26 941.563ZM1312.5 1015.23V1015.23L1291.39 978.674H1291.39L1312.5 1015.23ZM1355.12 941.803L1376.23 978.362H1376.24L1355.12 941.801L1355.12 941.803ZM1429.12 887.513H1429.14L1428.96 887.817L1428.97 887.823H1428.96L1407.73 924.6L1386.49 887.823H1386.49L1407.74 924.623H1322.36L1343.61 887.822H1343.59L1343.77 887.518L1343.76 887.513H1343.77L1365 850.735L1386.24 887.513H1386.24L1364.99 850.712H1450.37L1429.12 887.513ZM1365.05 924.384L1365.05 924.381L1343.94 887.822H1343.94L1365.05 924.384ZM1407.68 850.952L1428.79 887.513H1428.79L1407.68 850.949L1407.68 850.952ZM1440.93 834.325H1375.19L1408.06 777.4L1440.93 834.325ZM893.968 420.36L893.991 420.4H893.898L870.682 460.61L870.705 460.65H677.467L701.631 418.794L701.609 418.755H701.703L724.919 378.543L724.896 378.505H918.135L893.968 420.36ZM1033.12 420.36L1033.14 420.4H1033.05L1009.83 460.61L1009.85 460.65H890.217L914.381 418.794L914.359 418.755H914.453L937.669 378.543L937.646 378.505H1057.28L1033.12 420.36ZM1129.43 378.543L1152.65 418.755H1152.74L1152.72 418.793L1176.89 460.65H1128.55L1128.57 460.61L1124.9 454.25H1084.81L1081.13 460.61L1081.16 460.65H1032.82L1056.98 418.794L1056.96 418.755H1057.05L1080.27 378.543L1080.25 378.505H1129.46L1129.43 378.543ZM725.782 460.61L725.785 460.616L749.005 420.4H748.999L725.782 460.61ZM774.083 460.611L774.086 460.616L797.305 420.4H797.299L774.083 460.611ZM822.382 460.61L822.385 460.616L845.604 420.4H845.599L822.382 460.61ZM938.532 460.61L938.535 460.616L961.755 420.4H961.749L938.532 460.61ZM597.045 418.755H597.052L620.268 378.544L620.265 378.538L597.045 418.755ZM749.995 418.755H750.002L773.218 378.544L773.215 378.538L749.995 418.755ZM798.297 418.755H798.303L821.519 378.543L821.516 378.538L798.297 418.755ZM846.596 418.755H846.602L869.817 378.544L869.814 378.538L846.596 418.755ZM962.747 418.755H962.753L985.968 378.544L985.965 378.538L962.747 418.755Z" fill="url(#paint2_linear_407_420)"/>
<path d="M899.845 1044.95L905.198 1035.68H894.492L899.845 1044.95Z" fill="#36F8EC"/>
<line x1="1093.65" y1="745.832" x2="808.448" y2="745.832" stroke="#36F8EC" stroke-width="24.265"/>
<path d="M899.845 1026.42L894.492 1035.69H905.198L899.845 1026.42Z" fill="#36F8EC"/>
<path d="M871.097 1044.95L876.45 1035.68H865.744L871.097 1044.95Z" fill="#36F8EC"/>
<path d="M871.097 1026.42L865.744 1035.69H876.45L871.097 1026.42Z" fill="#36F8EC"/>
<path d="M842.352 1044.95L847.705 1035.68H836.999L842.352 1044.95Z" fill="#36F8EC"/>
<path d="M842.351 1026.42L836.998 1035.69H847.705L842.351 1026.42Z" fill="#36F8EC"/>
<path d="M1237.84 1003.49L1223.89 979.34H1251.78L1237.84 1003.49Z" fill="#36F8EC"/>
<path d="M1442.56 837.2L1436.58 847.55H1448.54L1442.56 837.2Z" fill="#36F8EC"/>
<line x1="1089.47" y1="736.3" x2="1236.67" y2="991.258" stroke="#36F8EC" stroke-width="10.2695"/>
<line y1="-5.13475" x2="179.4" y2="-5.13475" transform="matrix(0.5 -0.866025 -0.866025 -0.5 1232.22 992.676)" stroke="#36F8EC" stroke-width="10.2695"/>
<line y1="-5.8075" x2="285.2" y2="-5.8075" transform="matrix(-1 0 0 1 1097.1 757.85)" stroke="#36F8EC" stroke-width="11.615"/>
<line x1="1322.5" y1="842.415" x2="1442.52" y2="842.415" stroke="#36F8EC" stroke-width="10.2695"/>
<line x1="853.02" y1="1116.1" x2="653.196" y2="1116.1" stroke="#36F8EC" stroke-width="20.585"/>
<line y1="-5.13475" x2="103.5" y2="-5.13475" transform="matrix(-0.5 0.866025 0.866025 0.5 904.59 1036.75)" stroke="#36F8EC" stroke-width="10.2695"/>
<line x1="900.026" y1="1037.03" x2="843.101" y2="938.436" stroke="#36F8EC" stroke-width="10.2695"/>
<line y1="-5.13475" x2="89.7" y2="-5.13475" transform="matrix(0.5 -0.866025 -0.866025 -0.5 821.216 1110.98)" stroke="#36F8EC" stroke-width="10.2695"/>
<line x1="871.278" y1="1037.03" x2="814.353" y2="938.436" stroke="#36F8EC" stroke-width="10.2695"/>
<line y1="-5.13475" x2="89.7" y2="-5.13475" transform="matrix(0.5 -0.866025 -0.866025 -0.5 792.47 1110.98)" stroke="#36F8EC" stroke-width="10.2695"/>
<line x1="842.533" y1="1038.18" x2="785.608" y2="939.586" stroke="#36F8EC" stroke-width="10.2695"/>
<path d="M1097.2 1190.98H1129.47L1113.32 1218.96L1113.29 1218.9H1081.14L1081.11 1218.96L1081.08 1218.9H1048.81L1064.96 1190.93L1064.99 1190.98H1097.14L1097.17 1190.93L1097.2 1190.98ZM517.232 1189.94H1013.07L1013.07 1189.93H1046.24L1029.65 1218.66L1029.63 1218.62V1218.69H500.633V1218.62L484.071 1189.93H517.235L517.232 1189.94ZM667.325 1126.48H640.933V1127H481.083V1126.48H454.69L481.083 1080.77L481.216 1081H640.8L640.933 1080.77L667.325 1126.48ZM1160.91 1080.58H1193.19L1182.67 1098.8H1182.69L1166.54 1126.78L1166.51 1126.72H1134.35L1134.32 1126.78L1134.29 1126.72H1102.02L1112.53 1108.5H1112.52L1128.67 1080.53L1128.7 1080.58H1160.85L1160.88 1080.53L1160.91 1080.58ZM1056.17 1081.06H1108.95L1082.55 1126.77L1082.49 1126.66H1061.52L1061.45 1126.77L1061.38 1126.66H1015.52L1015.45 1126.77L1015.38 1126.66H969.518L969.451 1126.77L969.385 1126.66H923.518L923.451 1126.77L923.385 1126.66H870.609L897.001 1080.94L897.067 1081.06H942.935L943.001 1080.94L943.067 1081.06H988.935L989.001 1080.94L989.067 1081.06H1034.93L1035 1080.94L1035.07 1081.06H1056.04L1056.1 1080.94L1056.17 1081.06ZM1116.14 977.787H1168.92L1162.28 989.287H1162.42L1136.03 1035L1135.96 1034.89H1114.99L1114.93 1035L1114.86 1034.89H1068.99L1068.93 1035L1068.86 1034.89H1022.99L1022.93 1035L1022.86 1034.89H976.992L976.926 1035L976.859 1034.89H924.093L924.026 1035L917.321 1023.39H917.192L917.126 1023.5L890.734 977.787H943.51L943.576 977.673L943.643 977.787H989.51L989.576 977.673L989.643 977.787H1035.51L1035.58 977.673L1035.64 977.787H1088.41L1088.48 977.673L1088.54 977.787H1116.01L1116.08 977.673L1116.14 977.787ZM1214.47 987.552L1214.47 987.538L1230.61 1015.49H1230.65L1219.54 1034.75L1219.53 1034.75L1219.44 1034.91L1219.44 1034.92H1219.08L1219.08 1034.92L1219.07 1034.92H1205.3L1205.29 1034.95L1205.27 1034.92H1198.55L1198.53 1034.95L1198.51 1034.92H1194.22L1194.23 1034.9H1180.16L1180.13 1034.95L1180.1 1034.9H1154.91L1167.52 1013.06L1167.52 1013.07L1181.44 988.952H1181.43L1182.19 987.632L1182.17 987.594H1182.21L1187.86 977.809L1187.85 977.789H1187.87L1187.89 977.768L1187.9 977.789H1195.92L1195.94 977.768L1195.95 977.789H1200.75L1200.77 977.768L1200.78 977.789H1208.8L1208.82 977.768L1214.47 987.552ZM657.692 874H1150.96V874.334L1151.15 874L1190.99 943H617.933V942.864L617.896 942.929L578.059 873.929H657.733L657.692 874ZM608.189 776.25H1096.33V776.354L1096.53 776.02L1139.85 851.058H1053.2L1053.24 851H565.033L521.71 775.963H608.355L608.189 776.25ZM823.939 758.138H729.781L729.482 758.655L729.184 758.138H702.182L701.883 758.655L701.584 758.138H607.882L607.583 758.655L607.284 758.138H513.126L560.433 676.2L560.731 676.718H654.434L654.732 676.2L655.031 676.718H748.734L749.033 676.2L749.332 676.718H776.334L776.633 676.2L823.939 758.138ZM508.389 675.782H540.662L524.511 703.758L524.496 703.731L508.428 731.561L508.458 731.612H508.399L508.367 731.668L508.335 731.612H476.185L476.152 731.668L460.006 703.701H460.005V703.699L460.001 703.692H460.01L476.156 675.727L476.188 675.782H508.324L508.356 675.727L508.389 675.782ZM1192.08 666.929L1192.08 666.927V666.976H1052.36V666.814L1052.31 666.842L1006.06 586.729L1006.1 586.707L1002.66 580.75H1024.57L1024.53 580.806H1142.36L1142.29 580.679H1241.88L1192.08 666.929ZM726.88 580.679H825.854L776.366 666.393L776.404 666.457H776.33L776.058 666.929L775.785 666.457H764.83L764.558 666.929L764.285 666.457H665.931L665.658 666.929L665.386 666.457H566.411L615.898 580.742L615.861 580.679H615.936L616.208 580.207L616.48 580.679H714.835L715.107 580.207L715.38 580.679H726.335L726.607 580.207L726.88 580.679ZM580.834 580.42H595.581L588.327 592.983H588.575L572.424 620.958L572.395 620.907L565.062 633.607L565.06 633.603L563.729 635.908L563.7 635.857L562.561 637.833H562.631L546.479 665.808L546.447 665.752H514.309L514.276 665.808L514.244 665.752H481.97L491.93 648.502H491.859L508.011 620.526L508.036 620.57L516.693 605.576L516.722 605.626L524.054 592.927V592.928L531.358 580.276L531.441 580.42H532.058L532.141 580.276L532.224 580.42H547.008L547.091 580.276L547.174 580.42H561.958L562.041 580.276L562.124 580.42H576.908L576.991 580.276L577.074 580.42H580.668L580.751 580.276L580.834 580.42ZM1058.32 656.706H1069.46L1031.57 591.075H1020.42L1058.32 656.706ZM1081.32 656.706H1092.46L1054.57 591.075H1043.42L1081.32 656.706ZM1104.32 656.706H1115.46L1077.57 591.075H1066.42L1104.32 656.706ZM1127.32 656.706H1138.46L1100.57 591.075H1089.42L1127.32 656.706ZM1150.32 656.706H1161.46L1123.57 591.075H1112.42L1150.32 656.706ZM1173.32 656.706H1186.18L1148.29 591.075H1135.42L1173.32 656.706ZM619.894 482.583H652.167L636.232 510.183H636.236L620.085 538.158L620.052 538.102H620.017L614.89 546.983H615.027L598.876 574.958L598.844 574.902H566.688L566.656 574.958L566.624 574.902H534.351L539.662 565.702H539.526L555.678 537.727L555.71 537.782H555.752L571.502 510.502H571.495L587.646 482.527L587.679 482.583H619.829L619.861 482.527L619.894 482.583ZM1125.79 477.279L1128.92 482.699H1188.19L1188.33 482.457L1241.62 574.745H1135.05L1135.08 574.699H724.089L724.115 574.745H617.551L670.833 482.457L670.973 482.699H1084.29L1087.41 477.279L1087.4 477.25H1125.81L1125.79 477.279Z" fill="url(#paint3_linear_407_420)"/>
<defs>
<radialGradient id="paint0_radial_407_420" cx="0" cy="0" r="1" gradientUnits="userSpaceOnUse" gradientTransform="translate(848.302 848.302) rotate(60) scale(621)">
<stop offset="0.235577" stop-opacity="0"/>
<stop offset="1"/>
</radialGradient>
<linearGradient id="paint1_linear_407_420" x1="843.784" y1="133.841" x2="852.82" y2="1562.76" gradientUnits="userSpaceOnUse">
<stop stop-color="#F80AC8"/>
<stop offset="0.846154" stop-color="#4F0C71"/>
</linearGradient>
<linearGradient id="paint2_linear_407_420" x1="874.719" y1="378.504" x2="874.719" y2="1371.95" gradientUnits="userSpaceOnUse">
<stop stop-color="#F809C9"/>
<stop offset="0.85" stop-color="#4F0C71"/>
</linearGradient>
<linearGradient id="paint3_linear_407_420" x1="850.938" y1="477.25" x2="850.938" y2="1218.96" gradientUnits="userSpaceOnUse">
<stop stop-color="#FEF709"/>
<stop offset="1" stop-color="#F807CB"/>
</linearGradient>
<pattern id="pattern0_407_420" patternUnits="userSpaceOnUse" patternTransform="matrix(147.561 -85.1941 50.2037 86.9553 775.966 834.38)" preserveAspectRatio="none" viewBox="17.7236 24.2104 148.164 87.3107" width="1" height="1">
<use xlink:href="#pattern0_407_420_inner" transform="translate(-74.0818 -43.6554)"/>
<use xlink:href="#pattern0_407_420_inner" transform="translate(0 -87.3107)"/>
<use xlink:href="#pattern0_407_420_inner" transform="translate(74.0818 -43.6554)"/>
<use xlink:href="#pattern0_407_420_inner" transform="translate(-74.0818 43.6554)"/>
<g id="pattern0_407_420_inner">
<path d="M88.6232 27.2099L111.101 66.143L88.6227 105.078L43.6655 105.077L21.1874 66.144L43.6652 27.2094L88.6232 27.2099Z" stroke="#656665" stroke-width="6"/>
<path d="M53.101 43.76L78.621 43.76L91.381 65.861L78.621 87.962L53.101 87.962L40.341 65.861L53.101 43.76Z" fill="#656665"/>
</g>
<use xlink:href="#pattern0_407_420_inner" transform="translate(74.0818 43.6554)"/>
</pattern></defs>
</svg>
